<svg xmlns="http://www.w3.org/2000/svg" width="241.637" height="16.517" viewBox="0 0 241.637 16.517">
  <g id="Group_7747" data-name="Group 7747" transform="translate(2517.843 -1664.489)">
    <path id="Path_10844" data-name="Path 10844" d="M-898.289,1750.565h-2.662l-2.431-3.313h-1.791v3.254h-2.147c-.132-.4-.183-9.635-.048-10.6a2.829,2.829,0,0,1,.4-.055c1.464,0,2.927-.015,4.391,0a3.53,3.53,0,0,1,3.6,2.547,3.753,3.753,0,0,1-1.723,4.462,1.539,1.539,0,0,0-.183.144c.309.414.612.821.918,1.226q.836,1.1,1.677,2.208Zm-6.859-5.337c.918,0,1.76.027,2.6-.008a1.514,1.514,0,0,0,1.474-1.332,1.566,1.566,0,0,0-1.612-2.007c-.637-.006-1.275,0-1.912,0-.177,0-.353.027-.55.042Z" transform="translate(-1443.222 -72.38)" fill="#002168"/>
    <path id="Path_10845" data-name="Path 10845" d="M-1702.847,1738.958a6.781,6.781,0,0,1,.407.643c.662,1.415,1.315,2.835,1.972,4.253.1.221.212.44.368.763l2-5.467h2.381l-3.943,10.544c-.262.126-.391.053-.48-.114-.057-.109-.1-.224-.154-.336l-2.322-4.975c-.042-.089-.089-.175-.176-.344-.108.194-.189.321-.253.457-.781,1.655-1.558,3.312-2.343,4.965-.089.188-.117.466-.437.426-.281-.375-3.636-9.3-3.989-10.621h2.335l1.948,5.426C-1704.57,1742.7-1703.832,1740.847-1702.847,1738.958Z" transform="translate(-740.21 -71.603)" fill="#002168"/>
    <path id="Path_10846" data-name="Path 10846" d="M-1328.206,1750.545v-10.657c.2-.016.358-.039.519-.039,1.36,0,2.721-.018,4.08.007a6.952,6.952,0,0,1,1.464.19,2.114,2.114,0,0,1,1.6,1.558,2.745,2.745,0,0,1-1,3.319c.09.067.146.116.209.155a2.717,2.717,0,0,1,1.338,3.047,2.661,2.661,0,0,1-2.375,2.325,6.54,6.54,0,0,1-1.043.092c-1.381.01-2.761,0-4.142,0Zm2.211-4.419c0,.832-.028,1.6.019,2.413.931,0,1.794.025,2.655-.008a1.307,1.307,0,0,0,1.16-1.305,1.161,1.161,0,0,0-1.2-1.093C-1324.2,1746.109-1325.047,1746.126-1326,1746.126Zm.032-2.018c.837,0,1.618.029,2.4-.01a1.074,1.074,0,0,0,.955-1.111.979.979,0,0,0-.8-1.084c-.836-.042-1.676-.012-2.55-.012Z" transform="translate(-1074.567 -72.376)" fill="#002168"/>
    <path id="Path_10847" data-name="Path 10847" d="M-1949.83,1743.979a5.583,5.583,0,0,1-5.526,5.551,5.607,5.607,0,0,1-5.546-5.536,5.535,5.535,0,0,1,5.532-5.538A5.507,5.507,0,0,1-1949.83,1743.979Zm-2.248,0a3.375,3.375,0,0,0-3.265-3.416,3.431,3.431,0,0,0-3.326,3.441,3.45,3.45,0,0,0,3.288,3.428A3.4,3.4,0,0,0-1952.077,1743.979Z" transform="translate(-520.219 -71.162)" fill="#002168"/>
    <path id="Path_10848" data-name="Path 10848" d="M-1787.834,1739.656a39.419,39.419,0,0,1,5.467.146,4.825,4.825,0,0,1,4.053,4.641,6.473,6.473,0,0,1-.289,2.62,4.716,4.716,0,0,1-3.84,3.186,8.457,8.457,0,0,1-1.414.109c-1.113.016-2.226.006-3.338,0-.2,0-.4-.017-.64-.027Zm2.218,8.684a17.535,17.535,0,0,0,2.669-.046,2.515,2.515,0,0,0,2.282-2.028,5.125,5.125,0,0,0,.041-2.264,2.573,2.573,0,0,0-2.6-2.266c-.657-.038-1.319-.017-1.978-.015a2.89,2.89,0,0,0-.41.06Z" transform="translate(-671.855 -72.193)" fill="#002168"/>
    <path id="Path_10849" data-name="Path 10849" d="M-1161.116,1740.25c.36-.127.508.111.682.271q2.941,2.691,5.877,5.388c.119.109.241.216.425.38a14.646,14.646,0,0,0,.052-1.992c.011-.679,0-1.359,0-2.038v-2.006h2.2v10.564c-.391.153-.562-.146-.759-.323-1.535-1.374-3.059-2.76-4.588-4.141-.532-.481-1.066-.958-1.683-1.512v5.909a6.033,6.033,0,0,1-2.21.05Z" transform="translate(-1220.966 -72.703)" fill="#002168"/>
    <path id="Path_10850" data-name="Path 10850" d="M-1580.426,1750.519h-7.787c-.141-.432-.2-9.507-.071-10.586.445-.117,7.156-.138,7.849-.019v1.956h-5.635c-.048.785-.014,1.534-.02,2.346h5.036a20.312,20.312,0,0,1,.008,2.053h-5.01v2.217h5.63Z" transform="translate(-846.634 -72.37)" fill="#002168"/>
    <path id="Path_10851" data-name="Path 10851" d="M-985.229,1740.153h7.855v1.974h-5.639c-.057.8-.017,1.555-.027,2.38.874.032,1.712.012,2.55.016.819,0,1.638,0,2.489,0v2.017h-5v2.167a9.768,9.768,0,0,0,1.832.058c.639.016,1.278,0,1.917,0h1.876v1.952c-.452.12-7.151.143-7.857.023Z" transform="translate(-1375.073 -72.65)" fill="#002168"/>
    <path id="Path_10852" data-name="Path 10852" d="M-1068.953,1740.191h2.193v4.893l.092.051,3.882-4.925h2.76l-4.358,5.474,4.795,5.135h-2.966l-4.192-4.528v4.514h-2.206Z" transform="translate(-1301.716 -72.683)" fill="#002168"/>
    <path id="Path_10853" data-name="Path 10853" d="M-2039.467,1741.594l-2,.815a3.606,3.606,0,0,0-2.977-1.661,3.138,3.138,0,0,0-2.267,1.109,3.462,3.462,0,0,0,.28,4.926c1.5,1.341,3.333,1.043,4.965-.855l2,.814a5.457,5.457,0,0,1-5.931,2.862,5.558,5.558,0,0,1-4.447-5.363,5.542,5.542,0,0,1,4.321-5.461A5.461,5.461,0,0,1-2039.467,1741.594Z" transform="translate(-442.286 -71.339)" fill="#002168"/>
    <path id="Path_10854" data-name="Path 10854" d="M-1253.707,1739.423l5.495,10.721c-.2.017-.3.033-.4.033-.658,0-1.316,0-2.015,0l-.837-1.633h-4.768l-.8,1.6h-2.4c.09-.2.157-.368.238-.526q2.413-4.721,4.83-9.441a3.108,3.108,0,0,1,.269-.484A1.812,1.812,0,0,1-1253.707,1739.423Zm-1.423,7.108h2.58l-1.293-2.726Z" transform="translate(-1134.828 -72.01)" fill="#002168"/>
    <path id="Path_10859" data-name="Path 10859" d="M-1436.552,1748.556h5.5v1.968h-7.7v-10.642c.7-.041,1.4-.026,2.2-.005C-1436.551,1742.762-1436.554,1745.61-1436.552,1748.556Z" transform="translate(-977.709 -72.389)" fill="#002168"/>
    <path id="Path_10860" data-name="Path 10860" d="M-1858.687,1740.137h2.19v8.655h5.515v1.979h-7.705Z" transform="translate(-609.776 -72.635)" fill="#002168"/>
    <path id="Path_10861" data-name="Path 10861" d="M-1501.757,1750.508h-7.683v-10.622a18.943,18.943,0,0,1,2.181-.034v8.643a14.724,14.724,0,0,0,1.814.042c.618.009,1.237,0,1.856,0h1.832Z" transform="translate(-915.775 -72.373)" fill="#002168"/>
    <g id="Group_7749" data-name="Group 7749" transform="translate(-2330.92 1668.025)">
      <path id="Path_10855" data-name="Path 10855" d="M-1653.384,1901.89l-1.02,1.4c-.2-.106-.378-.2-.553-.292a4.545,4.545,0,0,0-2.608-.607,2.586,2.586,0,0,0-.94.26.768.768,0,0,0-.157,1.327,2.541,2.541,0,0,0,.918.476c.592.172,1.208.256,1.8.409a9.6,9.6,0,0,1,1.525.479,2.422,2.422,0,0,1,1.492,2.232,2.723,2.723,0,0,1-1.316,2.731,5.087,5.087,0,0,1-2.99.562,6.223,6.223,0,0,1-3.731-1.527l.917-1.369c.557.272,1.062.544,1.588.769a4.233,4.233,0,0,0,2.3.316,2.268,2.268,0,0,0,.813-.262.947.947,0,0,0,.029-1.67,4.064,4.064,0,0,0-1.088-.413c-.577-.15-1.176-.219-1.748-.385a7.626,7.626,0,0,1-1.487-.582,2.7,2.7,0,0,1-.067-4.509,5.153,5.153,0,0,1,2.54-.659A5.517,5.517,0,0,1-1653.384,1901.89Z" transform="translate(1660.959 -1900.571)" fill="#002168"/>
      <path id="Path_10856" data-name="Path 10856" d="M-1436.44,1902.105h7.246v1.661h-5.335v2.455h4.739v1.7h-4.751c-.049.811-.022,1.562-.018,2.388.239.016.455.043.67.044,1.341,0,2.681,0,4.021,0h.695c.012.28.026.481.029.682,0,.3,0,.608,0,.948h-7.3c-.057-.642-.019-1.293-.026-1.941s0-1.317,0-1.976v-2.037c0-.659-.006-1.318,0-1.977S-1436.505,1902.756-1436.44,1902.105Z" transform="translate(1464.275 -1901.911)" fill="#002168"/>
      <path id="Path_10857" data-name="Path 10857" d="M-1573.775,1901.97v1.572c-.227.012-.445.034-.663.034-1.34,0-2.68,0-4.02,0-.22,0-.44.021-.683.032v2.405c1.572.059,3.127-.008,4.75.039.011.293.025.551.03.809s0,.528,0,.853c-.817.071-1.593.028-2.366.035s-1.561,0-2.409,0c-.063.789-.013,1.54-.032,2.365.249.016.465.042.681.043,1.34,0,2.679,0,4.019,0h.687c.018.235.038.395.041.554.005.346,0,.69,0,1.074h-7.291v-9.8A71.778,71.778,0,0,1-1573.775,1901.97Z" transform="translate(1590.927 -1901.72)" fill="#002168"/>
      <path id="Path_10858" data-name="Path 10858" d="M-1358.783,1907.5l1.753.714a3.883,3.883,0,0,1-.216.463,4.78,4.78,0,0,1-3.832,2.17,5.071,5.071,0,0,1-5.452-3.949,5.124,5.124,0,0,1,5.633-6.316,4.855,4.855,0,0,1,3.707,2.268c.054.084.092.178.175.342l-1.746.723a3.215,3.215,0,0,0-2.776-1.577,3.092,3.092,0,0,0-2.255.99,3.441,3.441,0,0,0,.117,4.88,3.14,3.14,0,0,0,2.622.827A3.087,3.087,0,0,0-1358.783,1907.5Z" transform="translate(1403.11 -1900.538)" fill="#002168"/>
      <path id="Path_10862" data-name="Path 10862" d="M-1275.69,1912.085h-1.887c-.023-.917-.008-1.814-.011-2.711s0-1.81,0-2.715v-2.782c-.964-.052-1.886,0-2.844-.033V1902.2h7.523a9.091,9.091,0,0,1,.067,1.642l-2.848.017Z" transform="translate(1327.553 -1901.998)" fill="#002168"/>
      <path id="Path_10863" data-name="Path 10863" d="M-1498.426,1910.151v1.57c-.448.119-6.2.154-7.027.047-.127-.431-.176-8.784-.05-9.854a15.074,15.074,0,0,1,1.827-.03c.046.7.017,1.368.022,2.038s0,1.358,0,2.038V1908c0,.678,0,1.356,0,2.118.885.069,1.743.024,2.6.032S-1499.329,1910.151-1498.426,1910.151Z" transform="translate(1524.817 -1901.707)" fill="#002168"/>
    </g>
    <path id="Path_10866" data-name="Path 10866" d="M-888.871,1759.6v-3.3c.2-.016.374-.041.55-.042.637-.005,1.275-.007,1.912,0a1.566,1.566,0,0,1,1.612,2.008,1.513,1.513,0,0,1-1.474,1.332C-887.111,1759.63-887.953,1759.6-888.871,1759.6Z" transform="translate(-1459.498 -86.755)" fill="#fdfdfd"/>
    <path id="Path_10867" data-name="Path 10867" d="M-1310.406,1790.552c.948,0,1.793-.018,2.635.005a1.161,1.161,0,0,1,1.2,1.093,1.307,1.307,0,0,1-1.16,1.305c-.86.033-1.723.008-2.654.008C-1310.434,1792.149-1310.4,1791.383-1310.406,1790.552Z" transform="translate(-1090.156 -116.801)" fill="#fefefe"/>
    <path id="Path_10868" data-name="Path 10868" d="M-1310.1,1758.539v-2.216c.874,0,1.714-.031,2.55.012a.979.979,0,0,1,.8,1.084,1.075,1.075,0,0,1-.954,1.111C-1308.477,1758.568-1309.258,1758.539-1310.1,1758.539Z" transform="translate(-1090.435 -86.807)" fill="#fefefe"/>
    <path id="Path_10869" data-name="Path 10869" d="M-1936.284,1758.887a3.4,3.4,0,0,1-3.3,3.453,3.451,3.451,0,0,1-3.288-3.428,3.43,3.43,0,0,1,3.326-3.44A3.374,3.374,0,0,1-1936.284,1758.887Z" transform="translate(-536.013 -86.071)" fill="#fefefe"/>
    <path id="Path_10870" data-name="Path 10870" d="M-1769.918,1763.065v-6.558a2.807,2.807,0,0,1,.41-.061c.659,0,1.32-.023,1.978.015a2.573,2.573,0,0,1,2.6,2.265,5.123,5.123,0,0,1-.041,2.264,2.514,2.514,0,0,1-2.282,2.028A17.626,17.626,0,0,1-1769.918,1763.065Z" transform="translate(-687.553 -86.918)" fill="#fefefe"/>
    <path id="Path_10871" data-name="Path 10871" d="M-1224.717,1777.532l1.287-2.726,1.293,2.726Z" transform="translate(-1165.24 -103.012)" fill="#fbfbfb"/>
    <g id="Group_7748" data-name="Group 7748" transform="translate(-2517.843 1664.489)">
      <path id="Path_10843" data-name="Path 10843" d="M-2540.477,1677.708c0-.089.009-.178.009-.268v-16.249h16.538c.005.05.011.1.016.155a.575.575,0,0,1,0,.062q0,8.15,0,16.3Zm15.84-.72V1661.9h-15.109c-.041.286-.027,14.943.014,15.089Z" transform="translate(2540.477 -1661.191)" fill="#002168"/>
      <path id="Path_10865" data-name="Path 10865" d="M-2508.305,1693.38h-15.1c-.041-.145-.055-14.8-.013-15.088h15.109Zm-.195-.17c.042-.289.029-14.6-.012-14.75h-14.719c-.014.025-.026.036-.026.048q-.005,7.262-.007,14.525c0,.048.008.095.012.143,0,.005.008.01.012.016l.016.017Z" transform="translate(2524.146 -1677.583)" fill="#f8f8f8"/>
      <path id="Path_10872" data-name="Path 10872" d="M-2504.431,1697.125h-14.723l-.016-.017c0-.005-.012-.01-.012-.016a1.413,1.413,0,0,1-.012-.143q0-7.263.007-14.525c0-.011.012-.023.026-.049h14.719C-2504.4,1682.526-2504.388,1696.836-2504.431,1697.125Zm-6-10.68c-.022-.051-.037-.088-.054-.125a2.806,2.806,0,0,0-1.117-1.243,3.393,3.393,0,0,0-3.125-.218,3.661,3.661,0,0,0-2.314,3.344,3.76,3.76,0,0,0,.6,2.365,3.425,3.425,0,0,0,3.467,1.78,3.444,3.444,0,0,0,2.135-1.036,2.222,2.222,0,0,0,.528-.861l-.9-.826a2.607,2.607,0,0,1-.759,1.045,12.154,12.154,0,0,1,.016-1.781h2.105a.875.875,0,0,1,.85.513,1.178,1.178,0,0,1,.1.765.954.954,0,0,1-.97.819c-.1-.008-.192,0-.265,0-.171.211-.315.415-.485.592s-.375.334-.587.52h.168c.5,0,.994,0,1.491,0a.857.857,0,0,1,.569.21,1.18,1.18,0,0,1,.331,1.244,1.09,1.09,0,0,1-1.018.71c-.718-.013-1.435,0-2.153,0-.052,0-.105-.01-.179-.017V1692.5l-1.264.256v2.645c.058.005.105.013.152.013q1.77,0,3.54,0a2.448,2.448,0,0,0,.91-.168,1.948,1.948,0,0,0,1.359-1.735,2.017,2.017,0,0,0-1-1.993c-.032-.02-.06-.043-.092-.065a.333.333,0,0,1,.035-.047,2.052,2.052,0,0,0,.649-2.28,1.879,1.879,0,0,0-1.9-1.4c-1.145.023-2.291,0-3.436,0h-.236v2.32c0,.186,0,.372,0,.558a2.849,2.849,0,0,1-.022.576,1.939,1.939,0,0,1-.955-.181,2.381,2.381,0,0,1-1.024-.906,3,3,0,0,1-.143-3.034,2.184,2.184,0,0,1,2.349-1.247,1.906,1.906,0,0,1,1.5,1.067c.036.072.075.143.117.222Zm.663.667,1.164-.77c.391.243.753.507,1.165.759l-.374-1.335,1.1-.868-1.4-.057-.471-1.253-.041,0-.466,1.248-1.4.061,1.1.866Z" transform="translate(2520.076 -1681.498)" fill="#002168"/>
      <path id="Path_10873" data-name="Path 10873" d="M-2460.989,1737.421l-1.022.664c-.042-.08-.081-.151-.117-.223a1.907,1.907,0,0,0-1.5-1.067,2.184,2.184,0,0,0-2.349,1.247,3,3,0,0,0,.143,3.035,2.378,2.378,0,0,0,1.024.905,1.934,1.934,0,0,0,.955.182,2.826,2.826,0,0,0,.021-.576c.006-.186,0-.372,0-.558v-2.32h.237c1.145,0,2.292.017,3.437-.005a1.88,1.88,0,0,1,1.9,1.4,2.051,2.051,0,0,1-.649,2.279.352.352,0,0,0-.035.048c.031.021.059.044.091.064a2.019,2.019,0,0,1,1,1.993,1.951,1.951,0,0,1-1.36,1.735,2.447,2.447,0,0,1-.91.168h-3.541c-.047,0-.093-.008-.151-.013v-2.645l1.264-.256v1.739c.074.007.126.016.18.016.717,0,1.435-.009,2.153,0a1.089,1.089,0,0,0,1.017-.709,1.18,1.18,0,0,0-.33-1.245.862.862,0,0,0-.569-.21c-.5,0-.994,0-1.491,0h-.168c.212-.186.414-.34.588-.52s.314-.381.485-.592c.073,0,.169-.006.265,0a.955.955,0,0,0,.971-.819,1.182,1.182,0,0,0-.1-.765.876.876,0,0,0-.851-.513h-2.1a12.156,12.156,0,0,0-.016,1.781,2.609,2.609,0,0,0,.76-1.045l.9.826a2.221,2.221,0,0,1-.529.861,3.444,3.444,0,0,1-2.135,1.036,3.425,3.425,0,0,1-3.466-1.78,3.757,3.757,0,0,1-.6-2.365,3.66,3.66,0,0,1,2.314-3.344,3.39,3.39,0,0,1,3.125.217,2.807,2.807,0,0,1,1.117,1.243C-2461.026,1737.332-2461.011,1737.37-2460.989,1737.421Z" transform="translate(2470.632 -1732.473)" fill="#fefefe"/>
      <path id="Path_10874" data-name="Path 10874" d="M-2308.348,1715.186c.134-.476.254-.9.377-1.344l-1.095-.867,1.4-.061c.157-.418.312-.833.466-1.248l.041,0,.471,1.252,1.4.057-1.1.868.374,1.334c-.411-.252-.773-.515-1.165-.759Z" transform="translate(2318.655 -1709.572)" fill="#fefefe"/>
    </g>
    <path id="Path_10875" data-name="Path 10875" d="M-2396.269,1666.19v11.249" transform="translate(59.279 0.83)" fill="none" stroke="#002168" stroke-width="0.5"/>
  </g>
</svg>
