<svg xmlns="http://www.w3.org/2000/svg" width="30" height="30" viewBox="0 0 30 30">
  <g id="Notification" transform="translate(279 -921)">
    <g id="Rectangle_3198" data-name="Rectangle 3198" transform="translate(-279 921)" fill="#fff" stroke="#707070" stroke-width="1" opacity="0">
      <rect width="30" height="30" stroke="none"/>
      <rect x="0.5" y="0.5" width="29" height="29" fill="none"/>
    </g>
    <g id="Group_8121" data-name="Group 8121" transform="translate(102 -60.551)">
      <path id="Path_10465" data-name="Path 10465" d="M3874.108,2609.012c-.152.584-.612.619-1.1.619q-4.311,0-8.625,0t-8.625,0c-.486,0-.948-.035-1.1-.619a.656.656,0,0,1,.477-.633,2.774,2.774,0,0,0,1.608-1.648,7.979,7.979,0,0,0,.8-2.805c.122-1.2.211-2.412.26-3.62a5.869,5.869,0,0,1,1-2.938,6.786,6.786,0,0,1,2.491-2.281,6.882,6.882,0,0,1,4.242-.635,6.074,6.074,0,0,1,1.764.549,6.729,6.729,0,0,1,1.211.781,6.824,6.824,0,0,1,2,2.647,5.01,5.01,0,0,1,.437,1.878c.051,1.208.14,2.416.26,3.62a8.03,8.03,0,0,0,.8,2.805,2.777,2.777,0,0,0,1.611,1.648A.659.659,0,0,1,3874.108,2609.012Z" transform="translate(-4230.66 -1607.809)" fill="none" stroke="#1f69ff" stroke-linecap="round" stroke-linejoin="round" stroke-width="1.5"/>
      <path id="Path_10466" data-name="Path 10466" d="M3890.557,2667.337a2.707,2.707,0,0,1-.269.6,3.083,3.083,0,0,1-.511.695,2.643,2.643,0,0,1-1.413.764,2.575,2.575,0,0,1-.5.039,2.55,2.55,0,0,1-1.91-.8,3.108,3.108,0,0,1-.513-.695,2.746,2.746,0,0,1-.267-.6.5.5,0,0,1,.046-.4.575.575,0,0,1,.46-.336.654.654,0,0,1,.55.189,2.647,2.647,0,0,1,.285.518,1.517,1.517,0,0,0,2.7,0,2.783,2.783,0,0,1,.286-.518.658.658,0,0,1,.55-.189.568.568,0,0,1,.46.336A.5.5,0,0,1,3890.557,2667.337Z" transform="translate(-4254.135 -1663.421)" fill="#1f69ff"/>
    </g>
  </g>
</svg>
