<svg xmlns="http://www.w3.org/2000/svg" width="30" height="30" viewBox="0 0 30 30">
  <g id="Settings" transform="translate(223 -921)">
    <g id="Rectangle_3197" data-name="Rectangle 3197" transform="translate(-223 921)" fill="#fff" stroke="#707070" stroke-width="1" opacity="0">
      <rect width="30" height="30" stroke="none"/>
      <rect x="0.5" y="0.5" width="29" height="29" fill="none"/>
    </g>
    <g id="Group_7797" data-name="Group 7797" transform="translate(-217 926)">
      <g id="Path_10453" data-name="Path 10453" transform="translate(-2252.646 -1262.156)" fill="none">
        <path d="M2261.809,1262.156c.129.015.259.022.387.046a2.73,2.73,0,0,1,2.209,1.822c.235.647.414,1.314.617,1.972.112.362.228.433.6.348.608-.138,1.215-.282,1.823-.42a2.8,2.8,0,0,1,3,1.2,2.827,2.827,0,0,1-.316,3.486c-.444.467-.88.943-1.317,1.418a.4.4,0,0,0,.015.616c.469.511.952,1.01,1.4,1.537a2.648,2.648,0,0,1,.5,2.772,2.74,2.74,0,0,1-2.241,1.833,3.155,3.155,0,0,1-1.257-.1c-.545-.121-1.088-.254-1.633-.379-.34-.077-.479.009-.583.341-.219.7-.4,1.411-.666,2.092a2.79,2.79,0,0,1-4.439,1.03,2.945,2.945,0,0,1-.87-1.422q-.248-.851-.515-1.7c-.116-.37-.223-.427-.6-.34-.55.125-1.1.245-1.648.387a2.851,2.851,0,0,1-2.4-.376,2.8,2.8,0,0,1-.57-4.139c.458-.528.943-1.033,1.416-1.548a.384.384,0,0,0,.031-.59c-.187-.225-.394-.433-.59-.65-.342-.377-.715-.732-1.016-1.14a2.809,2.809,0,0,1,2.273-4.409,3.753,3.753,0,0,1,.883.123c.531.112,1.057.245,1.586.366.416.1.525.037.648-.365q.257-.832.506-1.667a2.811,2.811,0,0,1,2.211-2.083c.157-.036.321-.046.481-.067Z" stroke="none"/>
        <path d="M 2261.78564453125 1263.661254882812 C 2261.776611328125 1263.662231445312 2261.767822265625 1263.663208007812 2261.759033203125 1263.664184570312 C 2261.7021484375 1263.670288085938 2261.624267578125 1263.6787109375 2261.594970703125 1263.685180664062 C 2260.979736328125 1263.824829101562 2260.670166015625 1264.117309570312 2260.48974609375 1264.7314453125 C 2260.344970703125 1265.22021484375 2260.1875 1265.7392578125 2259.979248046875 1266.4130859375 C 2259.58740234375 1267.686767578125 2258.677978515625 1267.876953125 2258.1708984375 1267.876953125 C 2257.983642578125 1267.876953125 2257.795166015625 1267.852661132812 2257.5625 1267.798828125 C 2257.366943359375 1267.754028320312 2257.171875 1267.707641601562 2256.976806640625 1267.661254882812 C 2256.64013671875 1267.581298828125 2256.322021484375 1267.505615234375 2256.003173828125 1267.4384765625 L 2255.908935546875 1267.41845703125 C 2255.750732421875 1267.384643554688 2255.5712890625 1267.346435546875 2255.48193359375 1267.346435546875 C 2254.99365234375 1267.36376953125 2254.668212890625 1267.530029296875 2254.39404296875 1267.90185546875 C 2254.07666015625 1268.33203125 2254.0625 1268.9609375 2254.362060546875 1269.365600585938 C 2254.51806640625 1269.576904296875 2254.72607421875 1269.79638671875 2254.9462890625 1270.028686523438 C 2255.055908203125 1270.144165039062 2255.1689453125 1270.263549804688 2255.2861328125 1270.392822265625 C 2255.3505859375 1270.464477539062 2255.41650390625 1270.534912109375 2255.482421875 1270.60546875 C 2255.62255859375 1270.755493164062 2255.767578125 1270.910766601562 2255.913818359375 1271.086303710938 C 2256.572509765625 1271.876220703125 2256.5419921875 1272.88330078125 2255.835693359375 1273.652099609375 C 2255.690673828125 1273.809936523438 2255.544677734375 1273.966918945312 2255.3984375 1274.123779296875 C 2255.0654296875 1274.481567382812 2254.7509765625 1274.819458007812 2254.44873046875 1275.167846679688 C 2254.12744140625 1275.538696289062 2254.129150390625 1275.957397460938 2254.15869140625 1276.174072265625 C 2254.209228515625 1276.546020507812 2254.411865234375 1276.874267578125 2254.715576171875 1277.075805664062 C 2254.957763671875 1277.236694335938 2255.193115234375 1277.311645507812 2255.456787109375 1277.311645507812 C 2255.59521484375 1277.311645507812 2255.746826171875 1277.290649414062 2255.90625 1277.249389648438 C 2256.364990234375 1277.130493164062 2256.82275390625 1277.027221679688 2257.265380859375 1276.927368164062 C 2257.3759765625 1276.90234375 2257.486572265625 1276.87744140625 2257.5947265625 1276.852783203125 C 2257.814453125 1276.802368164062 2258.000244140625 1276.778930664062 2258.178955078125 1276.778930664062 C 2258.581298828125 1276.778930664062 2259.56103515625 1276.917846679688 2259.96630859375 1278.206176757812 C 2260.1669921875 1278.846923828125 2260.33837890625 1279.41162109375 2260.490234375 1279.933471679688 C 2260.582275390625 1280.249755859375 2260.71435546875 1280.472290039062 2260.91943359375 1280.6552734375 C 2261.219482421875 1280.92333984375 2261.55029296875 1280.9794921875 2261.77490234375 1280.9794921875 C 2262.1826171875 1280.9794921875 2262.73828125 1280.775756835938 2262.96142578125 1280.20166015625 C 2263.120849609375 1279.790649414062 2263.251220703125 1279.349365234375 2263.389404296875 1278.882202148438 C 2263.45458984375 1278.661010742188 2263.522216796875 1278.432373046875 2263.593994140625 1278.20361328125 C 2264.006591796875 1276.886962890625 2265.08740234375 1276.78466796875 2265.40869140625 1276.78466796875 C 2265.577392578125 1276.78466796875 2265.75048828125 1276.80517578125 2265.942626953125 1276.8486328125 C 2266.173828125 1276.901489257812 2266.40478515625 1276.955810546875 2266.6357421875 1277.01025390625 C 2266.942138671875 1277.082397460938 2267.259033203125 1277.157104492188 2267.568115234375 1277.225952148438 C 2267.78515625 1277.2744140625 2267.992431640625 1277.317993164062 2268.144287109375 1277.317993164062 C 2268.178955078125 1277.317993164062 2268.20849609375 1277.315673828125 2268.233642578125 1277.311157226562 C 2268.825927734375 1277.205200195312 2269.1435546875 1276.953247070312 2269.329345703125 1276.442749023438 C 2269.512451171875 1275.93896484375 2269.44482421875 1275.566650390625 2269.095458984375 1275.157958984375 C 2268.80078125 1274.813354492188 2268.4892578125 1274.479370117188 2268.159423828125 1274.125732421875 C 2268.01513671875 1273.971069335938 2267.870849609375 1273.816284179688 2267.728759765625 1273.661499023438 C 2266.99462890625 1272.86328125 2266.989501953125 1271.798461914062 2267.71533203125 1271.013061523438 L 2267.8974609375 1270.8154296875 C 2268.271484375 1270.40966796875 2268.657958984375 1269.989990234375 2269.048583984375 1269.578491210938 C 2269.46142578125 1269.14453125 2269.527099609375 1268.446655273438 2269.200927734375 1267.95458984375 C 2268.9423828125 1267.564208984375 2268.553955078125 1267.34912109375 2268.107421875 1267.34912109375 C 2268.000244140625 1267.34912109375 2267.890625 1267.36181640625 2267.779296875 1267.38720703125 C 2267.471923828125 1267.456787109375 2267.164794921875 1267.527954101562 2266.857666015625 1267.59912109375 C 2266.557373046875 1267.668823242188 2266.2568359375 1267.738403320312 2265.95849609375 1267.80615234375 C 2265.748291015625 1267.854125976562 2265.567626953125 1267.87646484375 2265.390380859375 1267.87646484375 C 2264.982177734375 1267.87646484375 2263.989501953125 1267.736328125 2263.58935546875 1266.43896484375 C 2263.52490234375 1266.230834960938 2263.46337890625 1266.022583007812 2263.403564453125 1265.821166992188 C 2263.27001953125 1265.370239257812 2263.143798828125 1264.9443359375 2262.99560546875 1264.536743164062 C 2262.813232421875 1264.035522460938 2262.5009765625 1263.7861328125 2261.916259765625 1263.67578125 C 2261.894775390625 1263.671752929688 2261.831787109375 1263.665649414062 2261.78564453125 1263.661254882812 M 2261.744140625 1262.155883789062 C 2261.766357421875 1262.155883789062 2261.7880859375 1262.155883789062 2261.80908203125 1262.155883789062 C 2261.938232421875 1262.170654296875 2262.068359375 1262.177856445312 2262.19580078125 1262.202026367188 C 2263.265625 1262.404052734375 2264.030517578125 1262.993408203125 2264.4052734375 1264.024291992188 C 2264.640380859375 1264.6708984375 2264.819091796875 1265.337890625 2265.0224609375 1265.996215820312 C 2265.13427734375 1266.358764648438 2265.25048828125 1266.428833007812 2265.62451171875 1266.34375 C 2266.232666015625 1266.205810546875 2266.83984375 1266.061889648438 2267.447998046875 1265.924194335938 C 2268.627685546875 1265.65576171875 2269.785400390625 1266.119995117188 2270.45166015625 1267.126586914062 C 2271.16748046875 1268.206665039062 2271.031982421875 1269.669799804688 2270.135498046875 1270.6123046875 C 2269.69189453125 1271.07958984375 2269.255615234375 1271.555419921875 2268.818115234375 1272.029907226562 C 2268.625 1272.238891601562 2268.632568359375 1272.428344726562 2268.832763671875 1272.64599609375 C 2269.302001953125 1273.157104492188 2269.78515625 1273.656372070312 2270.235595703125 1274.183227539062 C 2270.936767578125 1275.003662109375 2271.1044921875 1275.950073242188 2270.7392578125 1276.955078125 C 2270.36083984375 1277.993896484375 2269.5869140625 1278.5927734375 2268.498046875 1278.787719726562 C 2268.06884765625 1278.864379882812 2267.654052734375 1278.7822265625 2267.24072265625 1278.689697265625 C 2266.696044921875 1278.568481445312 2266.15283203125 1278.435424804688 2265.608154296875 1278.310791015625 C 2265.267822265625 1278.234130859375 2265.129638671875 1278.319702148438 2265.025390625 1278.652221679688 C 2264.80615234375 1279.350463867188 2264.6240234375 1280.0634765625 2264.359619140625 1280.744506835938 C 2263.666748046875 1282.52783203125 2261.349609375 1283.05078125 2259.920166015625 1281.774047851562 C 2259.4833984375 1281.384155273438 2259.2109375 1280.906616210938 2259.0498046875 1280.351684570312 C 2258.884521484375 1279.784057617188 2258.711669921875 1279.21875 2258.534912109375 1278.654541015625 C 2258.418701171875 1278.285034179688 2258.312255859375 1278.227172851562 2257.93017578125 1278.314819335938 C 2257.38037109375 1278.440063476562 2256.8291015625 1278.559814453125 2256.282470703125 1278.701416015625 C 2255.42578125 1278.922973632812 2254.625 1278.81640625 2253.88525390625 1278.324951171875 C 2252.5009765625 1277.406860351562 2252.22705078125 1275.441284179688 2253.315185546875 1274.185546875 C 2253.773193359375 1273.657348632812 2254.2578125 1273.152465820312 2254.731201171875 1272.63720703125 C 2254.92236328125 1272.429077148438 2254.940673828125 1272.261596679688 2254.76171875 1272.046997070312 C 2254.57470703125 1271.822387695312 2254.367431640625 1271.614135742188 2254.171630859375 1271.396728515625 C 2253.82958984375 1271.019287109375 2253.456787109375 1270.664672851562 2253.155517578125 1270.2568359375 C 2252.45654296875 1269.312133789062 2252.487548828125 1267.95947265625 2253.186767578125 1267.011474609375 C 2253.744140625 1266.256103515625 2254.5048828125 1265.880249023438 2255.4287109375 1265.847412109375 C 2255.722412109375 1265.836791992188 2256.02001953125 1265.909301757812 2256.3115234375 1265.970458984375 C 2256.842529296875 1266.082397460938 2257.3681640625 1266.215454101562 2257.8974609375 1266.336669921875 C 2258.31298828125 1266.432861328125 2258.422119140625 1266.373901367188 2258.545654296875 1265.971923828125 C 2258.717041015625 1265.4169921875 2258.88671875 1264.86181640625 2259.051513671875 1264.305419921875 C 2259.382568359375 1263.178955078125 2260.118408203125 1262.482299804688 2261.2626953125 1262.222412109375 C 2261.420166015625 1262.186279296875 2261.583740234375 1262.176879882812 2261.744140625 1262.155883789062 Z" stroke="none" fill="#5d687e"/>
      </g>
      <g id="Path_10454" data-name="Path 10454" transform="translate(-2254.166 -1263.962)" fill="none">
        <path d="M2266.148,1274.143a2.851,2.851,0,1,1-5.7-.021,2.851,2.851,0,1,1,5.7.021Z" stroke="none"/>
        <path d="M 2263.291748046875 1275.502075195312 C 2264.03955078125 1275.502075195312 2264.64794921875 1274.892333984375 2264.64794921875 1274.142944335938 L 2264.6484375 1274.106567382812 C 2264.656494140625 1273.77294921875 2264.5166015625 1273.424682617188 2264.27392578125 1273.174926757812 C 2264.1005859375 1272.99658203125 2263.790283203125 1272.783325195312 2263.294189453125 1272.780883789062 L 2263.28759765625 1272.780883789062 C 2262.53759765625 1272.780883789062 2261.9482421875 1273.371826171875 2261.946044921875 1274.127563476562 C 2261.944580078125 1274.492309570312 2262.088134765625 1274.83837890625 2262.350341796875 1275.101928710938 C 2262.606689453125 1275.359497070312 2262.940673828125 1275.501586914062 2263.288818359375 1275.502075195312 L 2263.291748046875 1275.502075195312 M 2263.291748046875 1277.002075195312 C 2263.290771484375 1277.002075195312 2263.289794921875 1277.002075195312 2263.288818359375 1277.002075195312 C 2261.72802734375 1277 2260.43994140625 1275.698852539062 2260.446044921875 1274.121704101562 C 2260.45068359375 1272.57177734375 2261.6728515625 1271.280883789062 2263.28759765625 1271.280883789062 C 2263.292724609375 1271.280883789062 2263.2978515625 1271.280883789062 2263.302978515625 1271.280883789062 C 2265.066162109375 1271.289672851562 2266.182373046875 1272.721801757812 2266.14794921875 1274.142944335938 C 2266.14794921875 1275.717163085938 2264.863037109375 1277.002075195312 2263.291748046875 1277.002075195312 Z" stroke="none" fill="#5d687e"/>
      </g>
    </g>
  </g>
</svg>
