<svg xmlns="http://www.w3.org/2000/svg" width="30" height="30" viewBox="0 0 30 30">
  <g id="eye" transform="translate(-316 -411)">
    <rect id="Rectangle_1719" data-name="Rectangle 1719" width="30" height="30" transform="translate(316 411)" fill="rgba(255,255,255,0)"/>
    <g id="eye-outline" transform="translate(286.877 306.2)">
      <g id="Path_1013" data-name="Path 1013" transform="translate(0 0)" fill="none" stroke-linecap="round">
        <path d="M44.114,112c-4.222,0-8.552,2.443-11.961,7.33a.867.867,0,0,0-.015.963c2.619,4.1,6.892,7.307,11.976,7.307,5.029,0,9.389-3.216,12.013-7.326a.874.874,0,0,0,0-.946C53.5,115.265,49.1,112,44.114,112Z" stroke="none"/>
        <path d="M 44.11371994018555 113.4999923706055 C 42.24568939208984 113.4999923706055 40.39060974121094 114.0446548461914 38.60002899169922 115.1188354492188 C 36.78487014770508 116.207763671875 35.11527252197266 117.7939071655273 33.63262557983398 119.8370208740234 C 34.84494018554688 121.63720703125 36.35392761230469 123.1487350463867 38.01639938354492 124.2244262695312 C 39.93944931030273 125.4687118530273 41.99087905883789 126.0996246337891 44.11371994018555 126.0996246337891 C 46.2182502746582 126.0996246337891 48.26934814453125 125.4660720825195 50.21001815795898 124.2165679931641 C 51.9046745300293 123.1254577636719 53.4305305480957 121.6048126220703 54.64222717285156 119.8030548095703 C 53.42236709594727 118.0139389038086 51.89032363891602 116.4970855712891 50.19194793701172 115.4004974365234 C 48.23881912231445 114.1394119262695 46.19379806518555 113.4999923706055 44.11371994018555 113.4999923706055 M 44.11371994018555 111.9999923706055 C 49.10453033447266 111.9999923706055 53.49679946899414 115.2650909423828 56.12705993652344 119.3274841308594 C 56.31253051757812 119.6156311035156 56.31253051757812 119.9856109619141 56.12705993652344 120.2737579345703 C 53.50275039672852 124.3832778930664 49.14244079589844 127.5996246337891 44.11371994018555 127.5996246337891 C 39.02975845336914 127.5996246337891 34.7571907043457 124.3930358886719 32.13774871826172 120.2927017211914 C 31.94760894775391 119.9984283447266 31.9533805847168 119.6185913085938 32.15237808227539 119.330207824707 C 35.56155014038086 114.4433975219727 39.89207077026367 111.9999923706055 44.11371994018555 111.9999923706055 Z" stroke="none" fill="#5d687e"/>
      </g>
      <g id="Ellipse_35" data-name="Ellipse 35" transform="translate(40.123 115.8)" fill="none" stroke="#5d687e" stroke-linecap="round" stroke-width="1.5">
        <circle cx="4" cy="4" r="4" stroke="none"/>
        <circle cx="4" cy="4" r="3.25" fill="none"/>
      </g>
    </g>
  </g>
</svg>
