<svg xmlns="http://www.w3.org/2000/svg" width="218.106" height="63.254" viewBox="0 0 218.106 63.254">
  <g id="Group_7802" data-name="Group 7802" transform="translate(524.197 -170.757)">
    <path id="Path_10905" data-name="Path 10905" d="M-121.292,202.852h-14.566v20.76c0,7.418-4.037,12.723-10.646,14.421h19.492V227.9h6.15c9.371,0,14.085-5.1,14.085-12.212S-111.054,202.852-121.292,202.852Zm.765,17.641h-6.485v-9.757h6.485a4.618,4.618,0,0,1,4.955,4.948C-115.572,218.037-116.869,220.493-120.527,220.493Zm-35.829,17.488v.051h.2C-156.225,238.018-156.29,238-156.356,237.981Z" transform="translate(-199.314 -17.391)" fill="#1f69ff"/>
    <path id="Path_10906" data-name="Path 10906" d="M-497.761,230.2v7.834H-524.2V202.849h8.892V230.2Z" transform="translate(0 -17.389)" fill="#1f69ff"/>
    <path id="Path_10907" data-name="Path 10907" d="M-456.3,202.843v7.84h26.913v-7.84Zm8.8,27.353v-6.438h16.1V216.4H-456.3v21.627h26.913V230.2Z" transform="translate(-36.789 -17.386)" fill="#1f69ff"/>
    <path id="Path_10908" data-name="Path 10908" d="M-351.5,202.849l-16.967,35.184h-1.923l-16.967-35.184h9.806l8.123,17.736,8.075-17.736Z" transform="translate(-74.144 -17.389)" fill="#1f69ff"/>
    <path id="Path_10909" data-name="Path 10909" d="M-290.106,223.757h16.1V216.4H-298.9v21.627h26.913V230.2h-18.118Zm-8.795-20.914v7.84h26.913v-7.84Z" transform="translate(-122.076 -17.386)" fill="#1f69ff"/>
    <path id="Path_10910" data-name="Path 10910" d="M-196.239,237.981v.051h-33.723V202.852h8.889V230.2h15.608a13.23,13.23,0,0,0,6.755,6.886A14.588,14.588,0,0,0-196.239,237.981Z" transform="translate(-159.431 -17.391)" fill="#1f69ff"/>
    <path id="Path_10911" data-name="Path 10911" d="M-148.285,185.461h-8.846v20.76c0,5.582-4.183,7.36-6.631,7.36-2.5,0-6.682-1.778-6.682-7.36v-20.76h-8.846l15.506-14.7Z" transform="translate(-186.887 0)" fill="#1f69ff"/>
    <g id="Group_7801" data-name="Group 7801" transform="translate(-524.197 227.495)">
      <path id="Path_10912" data-name="Path 10912" d="M-524.2,301.138v-6.26h.137l2.959,3.643,2.967-3.643H-518v6.26h-.787v-4.207l-2.317,2.9-2.3-2.9v4.207Z" transform="translate(524.197 -294.75)" fill="#1f69ff"/>
      <path id="Path_10913" data-name="Path 10913" d="M-506.922,297.856a3.18,3.18,0,0,1,3.2-3.257,3.184,3.184,0,0,1,3.216,3.257,3.179,3.179,0,0,1-3.216,3.258A3.175,3.175,0,0,1-506.922,297.856Zm.8,0a2.514,2.514,0,0,0,2.4,2.54,2.51,2.51,0,0,0,2.412-2.54,2.508,2.508,0,0,0-2.412-2.531A2.512,2.512,0,0,0-506.126,297.856Z" transform="translate(514.837 -294.599)" fill="#1f69ff"/>
      <path id="Path_10914" data-name="Path 10914" d="M-484.725,294.878l-2.84,6.26h-.162l-2.813-6.26h.889l2.009,4.575,2.009-4.575Z" transform="translate(505.96 -294.75)" fill="#1f69ff"/>
      <path id="Path_10915" data-name="Path 10915" d="M-473.71,295.545V297.7h3.189v.684h-3.189v2.069h3.608v.684h-4.412v-6.26h4.412v.667Z" transform="translate(497.276 -294.75)" fill="#1f69ff"/>
      <path id="Path_10916" data-name="Path 10916" d="M-448.389,294.878l-2.343,3.891v2.369h-.8v-2.386l-2.326-3.874h.924l1.8,3.087,1.813-3.087Z" transform="translate(486.086 -294.75)" fill="#1f69ff"/>
      <path id="Path_10917" data-name="Path 10917" d="M-439.179,297.856a3.18,3.18,0,0,1,3.2-3.257,3.184,3.184,0,0,1,3.216,3.257,3.179,3.179,0,0,1-3.216,3.258A3.175,3.175,0,0,1-439.179,297.856Zm.8,0a2.514,2.514,0,0,0,2.4,2.54,2.51,2.51,0,0,0,2.412-2.54,2.508,2.508,0,0,0-2.412-2.531A2.512,2.512,0,0,0-438.383,297.856Z" transform="translate(478.13 -294.599)" fill="#1f69ff"/>
      <path id="Path_10918" data-name="Path 10918" d="M-421.455,298.658v-3.78h.8v3.737a1.767,1.767,0,0,0,1.813,1.941,1.767,1.767,0,0,0,1.813-1.941v-3.737h.795v3.78a2.44,2.44,0,0,1-2.608,2.6A2.444,2.444,0,0,1-421.455,298.658Z" transform="translate(468.526 -294.75)" fill="#1f69ff"/>
      <path id="Path_10919" data-name="Path 10919" d="M-404.756,299.026v2.112h-.8v-6.26h2.754a1.992,1.992,0,0,1,2.069,2.078,1.921,1.921,0,0,1-1.539,2.018l1.607,2.164h-.949l-1.531-2.112Zm0-.693h1.8a1.269,1.269,0,0,0,1.428-1.377,1.344,1.344,0,0,0-1.368-1.411h-1.865Z" transform="translate(459.914 -294.75)" fill="#1f69ff"/>
      <path id="Path_10920" data-name="Path 10920" d="M-379.7,297.854v.008a1.5,1.5,0,0,1,1.155,1.505,1.725,1.725,0,0,1-1.966,1.77h-2.694v-6.26h2.591c1.078,0,1.805.513,1.805,1.685A1.269,1.269,0,0,1-379.7,297.854Zm-2.7-.257h1.719a.973.973,0,0,0,1.068-1.061.948.948,0,0,0-1.06-.992H-382.4Zm3.07,1.779a1.084,1.084,0,0,0-1.206-1.078H-382.4v2.181h1.805A1.127,1.127,0,0,0-379.334,299.376Z" transform="translate(447.802 -294.75)" fill="#1f69ff"/>
      <path id="Path_10921" data-name="Path 10921" d="M-369.011,298.658v-3.78h.8v3.737a1.766,1.766,0,0,0,1.813,1.941,1.767,1.767,0,0,0,1.812-1.941v-3.737h.8v3.78a2.44,2.44,0,0,1-2.608,2.6A2.444,2.444,0,0,1-369.011,298.658Z" transform="translate(440.11 -294.75)" fill="#1f69ff"/>
      <path id="Path_10922" data-name="Path 10922" d="M-353.5,300.3l.453-.556a3.114,3.114,0,0,0,2.035.693c.975,0,1.505-.487,1.505-1.111,0-.761-.787-.967-1.7-1.129-.787-.137-2.335-.334-2.335-1.745,0-1.385,1.283-1.8,2.275-1.8a3.513,3.513,0,0,1,2.155.676l-.411.607a2.885,2.885,0,0,0-1.8-.573c-.573,0-1.42.273-1.42,1.069,0,.761,1.265.975,2.027,1.129s2,.394,2,1.762c0,1.274-1.051,1.821-2.275,1.821A3.681,3.681,0,0,1-353.5,300.3Z" transform="translate(431.729 -294.629)" fill="#1f69ff"/>
      <path id="Path_10923" data-name="Path 10923" d="M-337.965,301.138h-.8v-6.26h.8Z" transform="translate(423.723 -294.75)" fill="#1f69ff"/>
      <path id="Path_10924" data-name="Path 10924" d="M-326.729,301.138h-.145l-4.344-4.5v4.5h-.8v-6.26h.163l4.327,4.464v-4.464h.8Z" transform="translate(420.063 -294.75)" fill="#1f69ff"/>
      <path id="Path_10925" data-name="Path 10925" d="M-315.147,295.545V297.7h3.19v.684h-3.19v2.069h3.609v.684h-4.412v-6.26h4.412v.667Z" transform="translate(411.359 -294.75)" fill="#1f69ff"/>
      <path id="Path_10926" data-name="Path 10926" d="M-302.383,300.3l.453-.556a3.114,3.114,0,0,0,2.035.693c.975,0,1.505-.487,1.505-1.111,0-.761-.787-.967-1.7-1.129-.787-.137-2.335-.334-2.335-1.745,0-1.385,1.283-1.8,2.275-1.8a3.513,3.513,0,0,1,2.155.676l-.411.607a2.885,2.885,0,0,0-1.8-.573c-.573,0-1.42.273-1.42,1.069,0,.761,1.265.975,2.027,1.129s2,.394,2,1.762c0,1.274-1.051,1.821-2.275,1.821A3.681,3.681,0,0,1-302.383,300.3Z" transform="translate(404.031 -294.629)" fill="#1f69ff"/>
      <path id="Path_10927" data-name="Path 10927" d="M-288.463,300.3l.453-.556a3.114,3.114,0,0,0,2.035.693c.975,0,1.505-.487,1.505-1.111,0-.761-.787-.967-1.7-1.129-.787-.137-2.334-.334-2.334-1.745,0-1.385,1.282-1.8,2.274-1.8a3.513,3.513,0,0,1,2.155.676l-.411.607a2.885,2.885,0,0,0-1.8-.573c-.573,0-1.42.273-1.42,1.069,0,.761,1.265.975,2.027,1.129s2,.394,2,1.762c0,1.274-1.051,1.821-2.275,1.821A3.68,3.68,0,0,1-288.463,300.3Z" transform="translate(396.488 -294.629)" fill="#1f69ff"/>
      <path id="Path_10928" data-name="Path 10928" d="M-262.805,295.545h-1.9v5.593h-.8v-5.593h-1.907v-.667h4.6Z" transform="translate(385.055 -294.75)" fill="#1f69ff"/>
      <path id="Path_10929" data-name="Path 10929" d="M-254.533,297.856a3.18,3.18,0,0,1,3.2-3.257,3.184,3.184,0,0,1,3.216,3.257,3.179,3.179,0,0,1-3.216,3.258A3.175,3.175,0,0,1-254.533,297.856Zm.8,0a2.514,2.514,0,0,0,2.4,2.54,2.51,2.51,0,0,0,2.412-2.54,2.508,2.508,0,0,0-2.412-2.531A2.512,2.512,0,0,0-253.738,297.856Z" transform="translate(378.08 -294.599)" fill="#1f69ff"/>
      <path id="Path_10930" data-name="Path 10930" d="M-225.456,295.545h-1.9v5.593h-.795v-5.593h-1.907v-.667h4.6Z" transform="translate(364.818 -294.75)" fill="#1f69ff"/>
      <path id="Path_10931" data-name="Path 10931" d="M-211.091,294.878v6.26h-.8v-2.677h-3.72v2.677h-.8v-6.26h.8v2.907h3.72v-2.907Z" transform="translate(357.427 -294.75)" fill="#1f69ff"/>
      <path id="Path_10932" data-name="Path 10932" d="M-199.475,295.545V297.7h3.19v.684h-3.19v2.069h3.609v.684h-4.412v-6.26h4.412v.667Z" transform="translate(348.682 -294.75)" fill="#1f69ff"/>
      <path id="Path_10933" data-name="Path 10933" d="M-173.334,301.138h-.145l-4.344-4.5v4.5h-.8v-6.26h.163l4.327,4.464v-4.464h.8Z" transform="translate(336.946 -294.75)" fill="#1f69ff"/>
      <path id="Path_10934" data-name="Path 10934" d="M-161.752,295.545V297.7h3.19v.684h-3.19v2.069h3.61v.684h-4.413v-6.26h4.413v.667Z" transform="translate(328.242 -294.75)" fill="#1f69ff"/>
      <path id="Path_10935" data-name="Path 10935" d="M-146.958,298.042l-2.352-3.164h.992l1.847,2.6,1.838-2.6h.984l-2.334,3.164,2.291,3.1h-.991l-1.787-2.514-1.787,2.514h-1Z" transform="translate(321.065 -294.75)" fill="#1f69ff"/>
      <path id="Path_10936" data-name="Path 10936" d="M-129.671,295.545h-1.9v5.593h-.8v-5.593h-1.907v-.667h4.6Z" transform="translate(312.917 -294.75)" fill="#1f69ff"/>
      <path id="Path_10937" data-name="Path 10937" d="M-108.6,300.479v.658h-4.309v-6.26h.8v5.6Z" transform="translate(301.341 -294.75)" fill="#1f69ff"/>
      <path id="Path_10938" data-name="Path 10938" d="M-99.381,295.545V297.7h3.189v.684h-3.189v2.069h3.608v.684h-4.412v-6.26h4.412v.667Z" transform="translate(294.447 -294.75)" fill="#1f69ff"/>
      <path id="Path_10939" data-name="Path 10939" d="M-81.758,294.878l-2.84,6.26h-.162l-2.813-6.26h.889l2.009,4.575,2.009-4.575Z" transform="translate(287.613 -294.75)" fill="#1f69ff"/>
      <path id="Path_10940" data-name="Path 10940" d="M-70.743,295.545V297.7h3.19v.684h-3.19v2.069h3.609v.684h-4.412v-6.26h4.412v.667Z" transform="translate(278.929 -294.75)" fill="#1f69ff"/>
      <path id="Path_10941" data-name="Path 10941" d="M-53.264,300.479v.658h-4.309v-6.26h.8v5.6Z" transform="translate(271.357 -294.75)" fill="#1f69ff"/>
    </g>
  </g>
</svg>
