<svg xmlns="http://www.w3.org/2000/svg" width="48" height="48" viewBox="0 0 48 48">
  <g id="Plan" transform="translate(323 -517)">
    <g id="Rectangle_3194" data-name="Rectangle 3194" transform="translate(-323 517)" fill="#fff" stroke="#707070" stroke-width="1" opacity="0">
      <rect width="48" height="48" stroke="none"/>
      <rect x="0.5" y="0.5" width="47" height="47" fill="none"/>
    </g>
    <g id="Group_8127" data-name="Group 8127" transform="translate(-534 189)">
      <g id="Group_7776" data-name="Group 7776" transform="translate(3136.736 48.816)">
        <g id="Path_10893" data-name="Path 10893" fill="none" stroke-linecap="round">
          <path d="M-2904.853,318.46h-17.03a3.853,3.853,0,0,1-3.853-3.853V292.036a3.852,3.852,0,0,1,3.853-3.852h14.511l6.372,6.527v19.9A3.853,3.853,0,0,1-2904.853,318.46Z" stroke="none"/>
          <path d="M -2904.85302734375 316.4599914550781 C -2903.831298828125 316.4599914550781 -2903 315.6287536621094 -2903 314.6069946289062 L -2903 295.525390625 L -2908.214599609375 290.1839904785156 L -2921.883056640625 290.1839904785156 C -2922.90478515625 290.1839904785156 -2923.736083984375 291.0148010253906 -2923.736083984375 292.0360107421875 L -2923.736083984375 314.6069946289062 C -2923.736083984375 315.6287536621094 -2922.90478515625 316.4599914550781 -2921.883056640625 316.4599914550781 L -2904.85302734375 316.4599914550781 M -2904.85302734375 318.4599914550781 L -2921.883056640625 318.4599914550781 C -2924.010986328125 318.4599914550781 -2925.736083984375 316.7349853515625 -2925.736083984375 314.6069946289062 L -2925.736083984375 292.0360107421875 C -2925.736083984375 289.9079895019531 -2924.010986328125 288.1839904785156 -2921.883056640625 288.1839904785156 L -2907.3720703125 288.1839904785156 L -2901 294.7109985351562 L -2901 314.6069946289062 C -2901 316.7349853515625 -2902.72509765625 318.4599914550781 -2904.85302734375 318.4599914550781 Z" stroke="none" fill="#1f69ff"/>
        </g>
        <line id="Line_110" data-name="Line 110" x2="13.258" transform="translate(-2920.258 301.265)" fill="none" stroke="#1f69ff" stroke-linecap="round" stroke-linejoin="round" stroke-width="1.5"/>
        <line id="Line_111" data-name="Line 111" x2="13.258" transform="translate(-2920.258 306.265)" fill="none" stroke="#1f69ff" stroke-linecap="round" stroke-linejoin="round" stroke-width="1.5"/>
        <line id="Line_112" data-name="Line 112" x2="7.258" transform="translate(-2920.258 311.265)" fill="none" stroke="#1f69ff" stroke-linecap="round" stroke-linejoin="round" stroke-width="1.5"/>
      </g>
      <g id="Path_10892" data-name="Path 10892" transform="translate(3273.1 -768.9)" fill="none" stroke-linecap="square" stroke-linejoin="bevel">
        <path d="M-3044.5,1107.5l6.3,6.3h-6.3Z" stroke="none"/>
        <path d="M -3044.5 1107.5 L -3038.199951171875 1113.800048828125 L -3044.5 1113.800048828125 L -3044.5 1107.5 Z" stroke="none" fill="#1f69ff"/>
      </g>
    </g>
  </g>
</svg>
