<svg xmlns="http://www.w3.org/2000/svg" width="97" height="27.304" viewBox="0 0 97 27.304">
  <g id="Group_10158" data-name="Group 10158" transform="translate(-179.58 -142.622)">
    <g id="Group_10156" data-name="Group 10156" transform="translate(179.58 142.622)">
      <path id="Path_20573" data-name="Path 20573" d="M305.038,325.935l-4.523,2.771,4.753,2.9,4.416-2.858Z" transform="translate(-291.587 -312.402)" fill="#1f7fb9" fill-rule="evenodd"/>
      <path id="Path_20574" data-name="Path 20574" d="M239.553,252.229l-.006,5.673,4.862-3.009Z" transform="translate(-235.12 -244.137)" fill="#1f7fb9" fill-rule="evenodd"/>
      <path id="Path_20575" data-name="Path 20575" d="M197.663,158.932c-.808.442-8.971,5.635-9.021,5.667l-4.625-2.887V150.718l4.512-2.779h0l4.635,2.8,4.5-2.879-9.139-5.237v3.105l0-3.1-8.947,5.486,0,16.29,9.059,5.524h0l9.023-5.56S197.617,160.231,197.663,158.932Z" transform="translate(-179.58 -142.622)" fill="#4fa9de" fill-rule="evenodd"/>
      <path id="Path_20576" data-name="Path 20576" d="M253.205,212.863l-13.648,8.467.008,5.43,13.648-8.221Z" transform="translate(-235.13 -207.677)" fill="#3492cf" fill-rule="evenodd"/>
    </g>
    <g id="Group_10157" data-name="Group 10157" transform="translate(203.407 149.719)">
      <path id="Path_20577" data-name="Path 20577" d="M520.3,274.26c0,2.2-1.743,3.468-5.084,3.468h-6.572V265.018h6.21c3.177,0,4.811,1.325,4.811,3.3a3.055,3.055,0,0,1-1.688,2.8A3.139,3.139,0,0,1,520.3,274.26Zm-8.733-7.027v3h2.923c1.434,0,2.215-.508,2.215-1.507s-.781-1.489-2.215-1.489Zm5.774,6.718c0-1.071-.817-1.58-2.342-1.58h-3.431v3.141H515C516.525,275.512,517.342,275.04,517.342,273.951Z" transform="translate(-508.645 -265.018)"/>
      <path id="Path_20578" data-name="Path 20578" d="M653.417,277.727l-2.451-3.541H648.26v3.541h-2.941V265.018h5.5c3.4,0,5.519,1.761,5.519,4.612a4.132,4.132,0,0,1-2.614,4.012l2.85,4.085Zm-2.76-10.313h-2.4v4.43h2.4c1.8,0,2.705-.835,2.705-2.215C653.362,268.232,652.454,267.415,650.657,267.415Z" transform="translate(-631.429 -265.018)"/>
      <path id="Path_20579" data-name="Path 20579" d="M770.235,275h-5.9l-1.126,2.724h-3.014l5.665-12.709h2.905l5.683,12.709H771.36Zm-.926-2.233-2.015-4.866-2.016,4.866Z" transform="translate(-734.629 -265.018)"/>
      <path id="Path_20580" data-name="Path 20580" d="M913.483,265.018h2.941v12.709h-2.941Z" transform="translate(-872.339 -265.018)"/>
      <path id="Path_20581" data-name="Path 20581" d="M983.735,265.018v12.709h-2.415l-6.337-7.717v7.717h-2.905V265.018h2.433l6.318,7.716v-7.716Z" transform="translate(-924.98 -265.018)"/>
      <path id="Path_20582" data-name="Path 20582" d="M1111.6,277.727l-3.068-4.412-3.014,4.412h-3.377l4.7-6.464-4.467-6.246h3.341l2.923,4.122,2.869-4.122h3.177l-4.43,6.137,4.739,6.573Z" transform="translate(-1041.825 -265.018)"/>
    </g>
  </g>
</svg>
